<svg width="1145" height="191" viewBox="0 0 1145 191" fill="none" xmlns="http://www.w3.org/2000/svg">
<path d="M24.2295 118.42V188H0.791992V10.2656H66.3438C85.7936 10.2656 101.012 15.2298 111.998 25.1582C123.066 35.0866 128.6 48.2295 128.6 64.5869C128.6 81.8395 123.188 95.1452 112.364 104.504C101.622 113.781 86.2005 118.42 66.0996 118.42H24.2295ZM24.2295 99.2549H66.3438C78.8763 99.2549 88.4792 96.3252 95.1523 90.4658C101.826 84.5251 105.162 75.9801 105.162 64.8311C105.162 54.2516 101.826 45.7881 95.1523 39.4404C88.4792 33.0928 79.3239 29.7969 67.6865 29.5527H24.2295V99.2549ZM236.51 174.938C227.721 185.274 214.822 190.441 197.813 190.441C183.735 190.441 172.993 186.372 165.587 178.234C158.263 170.015 154.56 157.889 154.479 141.857V55.9199H177.062V141.247C177.062 161.267 185.2 171.276 201.476 171.276C218.728 171.276 230.203 164.847 235.899 151.989V55.9199H258.482V188H236.998L236.51 174.938ZM314.269 55.9199L315.001 72.5215C325.092 59.8262 338.276 53.4785 354.552 53.4785C382.465 53.4785 396.544 69.2256 396.788 100.72V188H374.205V100.598C374.124 91.0762 371.926 84.0368 367.613 79.4795C363.382 74.9222 356.749 72.6436 347.716 72.6436C340.392 72.6436 333.963 74.5967 328.429 78.5029C322.895 82.4092 318.582 87.5361 315.489 93.8838V188H292.906V55.9199H314.269ZM512.389 188C511.087 185.396 510.029 180.757 509.215 174.084C498.717 184.989 486.184 190.441 471.617 190.441C458.596 190.441 447.895 186.779 439.513 179.455C431.212 172.049 427.062 162.691 427.062 151.379C427.062 137.626 432.27 126.965 442.687 119.396C453.185 111.747 467.914 107.922 486.876 107.922H508.849V97.5459C508.849 89.652 506.489 83.3857 501.769 78.7471C497.049 74.027 490.09 71.667 480.895 71.667C472.838 71.667 466.083 73.7015 460.631 77.7705C455.178 81.8395 452.452 86.763 452.452 92.541H429.747C429.747 85.9492 432.066 79.6016 436.705 73.498C441.425 67.3132 447.773 62.4303 455.748 58.8496C463.805 55.2689 472.634 53.4785 482.237 53.4785C497.455 53.4785 509.378 57.3034 518.004 64.9531C526.63 72.5215 531.106 82.9788 531.432 96.3252V157.116C531.432 169.242 532.978 178.885 536.07 186.047V188H512.389ZM474.913 170.788C481.993 170.788 488.707 168.957 495.055 165.295C501.402 161.633 506 156.872 508.849 151.013V123.913H491.148C463.479 123.913 449.645 132.01 449.645 148.205C449.645 155.285 452.005 160.819 456.725 164.807C461.445 168.794 467.507 170.788 474.913 170.788ZM591.368 188H568.785V0.5H591.368V188ZM709.166 174.938C700.377 185.274 687.478 190.441 670.47 190.441C656.391 190.441 645.649 186.372 638.243 178.234C630.919 170.015 627.216 157.889 627.135 141.857V55.9199H649.718V141.247C649.718 161.267 657.856 171.276 674.132 171.276C691.384 171.276 702.859 164.847 708.556 151.989V55.9199H731.139V188H709.654L709.166 174.938ZM829.405 76.1836C825.987 75.6139 822.285 75.3291 818.297 75.3291C803.486 75.3291 793.435 81.6361 788.146 94.25V188H765.562V55.9199H787.535L787.901 71.1787C795.307 59.3786 805.805 53.4785 819.396 53.4785C823.79 53.4785 827.127 54.0482 829.405 55.1875V76.1836ZM835.631 176.159C835.631 172.253 836.77 168.998 839.049 166.394C841.409 163.789 844.908 162.487 849.547 162.487C854.186 162.487 857.685 163.789 860.045 166.394C862.486 168.998 863.707 172.253 863.707 176.159C863.707 179.903 862.486 183.036 860.045 185.559C857.685 188.081 854.186 189.343 849.547 189.343C844.908 189.343 841.409 188.081 839.049 185.559C836.77 183.036 835.631 179.903 835.631 176.159ZM922.301 55.9199L922.911 70.5684C932.595 59.1751 945.657 53.4785 962.096 53.4785C980.569 53.4785 993.142 60.5586 999.815 74.7188C1004.21 68.3711 1009.91 63.2441 1016.91 59.3379C1023.99 55.4316 1032.33 53.4785 1041.93 53.4785C1070.9 53.4785 1085.63 68.8187 1086.12 99.499V188H1063.54V100.842C1063.54 91.4017 1061.38 84.3623 1057.07 79.7236C1052.75 75.0036 1045.51 72.6436 1035.34 72.6436C1026.96 72.6436 1020 75.1663 1014.46 80.2119C1008.93 85.1761 1005.72 91.89 1004.82 100.354V188H982.115V101.452C982.115 82.2464 972.716 72.6436 953.917 72.6436C939.106 72.6436 928.974 78.9505 923.521 91.5645V188H900.938V55.9199H922.301ZM1144.83 188H1122.25V0.5H1144.83V188Z" fill="white"/>
</svg>
