<svg width="1293" height="297" viewBox="0 0 1293 297" fill="none" xmlns="http://www.w3.org/2000/svg">
<path d="M36.7451 184.455V293H0.182617V15.7344H102.443C132.785 15.7344 156.525 23.4785 173.664 38.9668C190.93 54.4551 199.562 74.958 199.562 100.476C199.562 127.39 191.12 148.146 174.235 162.746C157.478 177.219 133.42 184.455 102.062 184.455H36.7451ZM36.7451 154.558H102.443C121.994 154.558 136.975 149.987 147.385 140.847C157.795 131.579 163 118.249 163 100.856C163 84.3525 157.795 71.1494 147.385 61.2471C136.975 51.3447 122.692 46.2031 104.538 45.8223H36.7451V154.558ZM367.902 272.624C354.191 288.747 334.069 296.809 307.536 296.809C285.573 296.809 268.815 290.461 257.263 277.766C245.837 264.943 240.061 246.027 239.934 221.018V86.9551H275.163V220.065C275.163 251.296 287.858 266.911 313.249 266.911C340.163 266.911 358.063 256.882 366.95 236.823V86.9551H402.18V293H368.664L367.902 272.624ZM489.206 86.9551L490.349 112.854C506.091 93.0488 526.657 83.1465 552.048 83.1465C595.593 83.1465 617.556 107.712 617.937 156.843V293H582.707V156.652C582.58 141.799 579.152 130.817 572.424 123.708C565.822 116.599 555.476 113.044 541.384 113.044C529.958 113.044 519.929 116.091 511.296 122.185C502.663 128.278 495.935 136.276 491.11 146.179V293H455.881V86.9551H489.206ZM798.273 293C796.242 288.938 794.592 281.701 793.322 271.291C776.945 288.303 757.395 296.809 734.67 296.809C714.357 296.809 697.663 291.096 684.587 279.67C671.638 268.117 665.163 253.518 665.163 235.871C665.163 214.416 673.288 197.785 689.538 185.979C705.915 174.045 728.894 168.078 758.474 168.078H792.751V151.892C792.751 139.577 789.069 129.802 781.706 122.565C774.343 115.202 763.488 111.521 749.143 111.521C736.574 111.521 726.037 114.694 717.531 121.042C709.025 127.39 704.772 135.07 704.772 144.084H669.353C669.353 133.801 672.971 123.898 680.207 114.377C687.57 104.729 697.473 97.1113 709.914 91.5254C722.482 85.9395 736.257 83.1465 751.237 83.1465C774.978 83.1465 793.576 89.1133 807.033 101.047C820.49 112.854 827.473 129.167 827.98 149.987V244.821C827.98 263.737 830.393 278.781 835.217 289.953V293H798.273ZM739.812 266.149C750.856 266.149 761.33 263.293 771.232 257.58C781.135 251.867 788.308 244.44 792.751 235.3V193.024H765.139C721.975 193.024 700.393 205.656 700.393 230.92C700.393 241.965 704.074 250.598 711.438 256.818C718.801 263.039 728.259 266.149 739.812 266.149ZM921.481 293H886.252V0.5H921.481V293ZM1105.25 272.624C1091.54 288.747 1071.41 296.809 1044.88 296.809C1022.92 296.809 1006.16 290.461 994.606 277.766C983.181 264.943 977.404 246.027 977.277 221.018V86.9551H1012.51V220.065C1012.51 251.296 1025.2 266.911 1050.59 266.911C1077.51 266.911 1095.41 256.882 1104.29 236.823V86.9551H1139.52V293H1106.01L1105.25 272.624ZM1292.82 118.566C1287.49 117.678 1281.71 117.233 1275.49 117.233C1252.38 117.233 1236.71 127.072 1228.45 146.75V293H1193.22V86.9551H1227.5L1228.07 110.759C1239.63 92.3506 1256 83.1465 1277.2 83.1465C1284.06 83.1465 1289.26 84.0352 1292.82 85.8125V118.566Z" fill="white"/>
</svg>
